# xmcd
# 
# Track frame offsets:
#     150
#     20365
#     41477
#     61975
#     84947
#     108650
#     125650
#     143947
#     167500
#     187675
#     208797
# 
# Disc length: 3127
# 
# Revision: 3
# Processed by: cddbd v1.5.2PL0 Copyright (c) Steve Scherf et al.
# Submitted via: fre:ac v1.0.17
# 
DISCID=8f0c350b
DTITLE=Jørn Hoel - En Blå Løk
DYEAR=2000
DGENRE=Blues
TTITLE0=En Blå Løk
TTITLE1=På Innsiden Av Låret
TTITLE2=Cumbia For Stive Hofte
TTITLE3=Livet Danse Fordi
TTITLE4=Elsk Mæ Fri
TTITLE5=Har Ingen Kirke Og Gå I
TTITLE6=Barfot Mambo
TTITLE7=Du E Et Helvete Å Elske
TTITLE8=Hjem Til Mine Egne
TTITLE9=Kryp Til Korset
TTITLE10=Tolv Steg Hjem
EXTD=
EXTT0=
EXTT1=
EXTT2=
EXTT3=
EXTT4=
EXTT5=
EXTT6=
EXTT7=
EXTT8=
EXTT9=
EXTT10=
PLAYORDER=
